<svg t="1684241090322" class="icon" viewBox="0 0 1024 1024" version="1.1" xmlns="http://www.w3.org/2000/svg" p-id="2564" width="200" height="200"><path d="M532.992 522.24v223.232c0 24.576 19.968 45.056 45.056 45.056 24.576-8.704 73.216-25.6 120.32-46.592 12.288-5.632 24.064-12.288 47.616-25.088 14.848-6.656 27.648-16.896 37.888-29.184 5.12-7.168 9.216-14.848 12.288-23.04V268.288c0-25.088-19.968-45.056-45.056-45.056-9.728 1.536-23.04 4.096-39.424 8.704 24.576 62.464 17.92 132.608-16.896 189.44-35.84 56.832-95.232 94.208-161.792 100.864zM270.336 223.232c-25.088 0-45.056 19.968-45.056 45.056v398.336c3.072 8.192 7.168 15.872 12.288 23.04 10.752 12.288 23.552 22.528 38.4 29.184 23.552 13.312 35.84 19.968 47.616 25.088 46.592 20.48 95.232 37.888 119.808 46.592 24.576 0 45.056-19.968 45.056-45.056v-223.744c-65.536-7.168-124.416-45.056-158.72-101.376-34.304-56.832-40.448-125.952-16.896-187.904-13.824-3.584-28.16-6.656-42.496-9.216z" fill="#707070" p-id="2565"></path><path d="M808.448 705.536c-10.24 12.288-23.04 22.528-37.888 29.184-23.04 12.8-34.816 19.456-46.592 24.576 12.288 0 49.664 0.512 86.016-1.536 11.776 0 23.552-4.096 32.768-11.264 8.192-7.168 14.336-16.384 17.408-27.136V321.024c0-23.04-17.408-42.496-40.448-44.544 0.512 2.56 1.024 5.12 1.024 8.192v398.336c-3.072 7.68-7.168 15.36-12.288 22.528zM206.336 276.48c-23.04 2.56-40.448 21.504-40.448 44.544v398.336c3.072 10.752 8.704 20.48 17.408 27.648 9.728 7.168 20.992 11.264 32.768 11.264 36.352 2.56 73.728 2.048 86.016 1.536-11.776-5.12-23.552-11.776-46.592-24.576-14.848-6.656-27.648-16.896-37.888-29.184-5.12-7.168-9.216-14.848-12.288-23.04V284.672c0-3.072 0.512-5.632 1.024-8.192zM711.68 231.936c-51.712 13.824-128 45.568-165.888 117.248-5.632 10.24-9.728 20.992-13.312 31.744V522.24c66.56-6.144 126.976-43.52 161.792-100.352 35.84-57.344 41.984-127.488 17.408-189.952z" fill="#707070" p-id="2566"></path><path d="M711.68 231.936c-51.712 13.824-128 45.568-165.888 117.248-5.632 10.24-9.728 20.992-13.312 31.744V522.24c66.56-6.144 126.976-43.52 161.792-100.352 35.84-57.344 41.984-127.488 17.408-189.952z" fill="#707070" p-id="2567"></path><path d="M488.96 521.728V380.928c-3.584-10.752-7.68-21.504-13.312-31.744-36.864-70.144-111.104-101.888-162.304-116.224-24.064 61.952-17.92 131.072 16.896 187.904 34.304 56.32 93.184 93.696 158.72 100.864z" fill="#707070" p-id="2568"></path><path d="M488.96 521.728V380.928c-3.584-10.752-7.68-21.504-13.312-31.744-36.864-70.144-111.104-101.888-162.304-116.224-24.064 61.952-17.92 131.072 16.896 187.904 34.304 56.32 93.184 93.696 158.72 100.864z" fill="#707070" p-id="2569"></path></svg>